<?xml version="1.0" encoding="UTF-8" standalone="no"?>
<!-- Created with Inkscape (http://www.inkscape.org/) -->

<svg
   width="512"
   height="512"
   viewBox="0 0 512 512"
   version="1.1"
   id="svg5"
   inkscape:version="1.2.1 (9c6d41e4, 2022-07-14)"
   sodipodi:docname="J{}_logo.svg"
   xmlns:inkscape="http://www.inkscape.org/namespaces/inkscape"
   xmlns:sodipodi="http://sodipodi.sourceforge.net/DTD/sodipodi-0.dtd"
   xmlns:xlink="http://www.w3.org/1999/xlink"
   xmlns="http://www.w3.org/2000/svg"
   xmlns:svg="http://www.w3.org/2000/svg">
  <sodipodi:namedview
     id="namedview7"
     pagecolor="#ffffff"
     bordercolor="#000000"
     borderopacity="0.25"
     inkscape:showpageshadow="2"
     inkscape:pageopacity="0.0"
     inkscape:pagecheckerboard="0"
     inkscape:deskcolor="#d1d1d1"
     inkscape:document-units="px"
     showgrid="false"
     showguides="false"
     inkscape:zoom="2"
     inkscape:cx="231.25"
     inkscape:cy="237.25"
     inkscape:window-width="1920"
     inkscape:window-height="1027"
     inkscape:window-x="3360"
     inkscape:window-y="25"
     inkscape:window-maximized="1"
     inkscape:current-layer="g1289">
    <sodipodi:guide
       position="250,262"
       orientation="0,1"
       id="guide275"
       inkscape:locked="false"
       inkscape:label=""
       inkscape:color="rgb(0,134,229)" />
    <sodipodi:guide
       position="250,386.48119"
       orientation="-1,0"
       id="guide279"
       inkscape:locked="false"
       inkscape:label=""
       inkscape:color="rgb(0,134,229)" />
    <sodipodi:guide
       position="250.7012,226.71265"
       orientation="0,-1"
       id="guide392"
       inkscape:locked="false" />
  </sodipodi:namedview>
  <defs
     id="defs2">
    <linearGradient
       inkscape:collect="always"
       id="linearGradient1303">
      <stop
         style="stop-color:#007ffe;stop-opacity:1;"
         offset="0"
         id="stop1299" />
      <stop
         style="stop-color:#007ffe;stop-opacity:0.1;"
         offset="0.5"
         id="stop1309" />
      <stop
         style="stop-color:#007ffe;stop-opacity:1;"
         offset="1"
         id="stop1301" />
    </linearGradient>
    <linearGradient
       inkscape:collect="always"
       xlink:href="#linearGradient1303"
       id="linearGradient1305"
       x1="125.19"
       y1="194.60001"
       x2="374.7893"
       y2="194.60001"
       gradientUnits="userSpaceOnUse" />
  </defs>
  <g
     inkscape:label="{} copy"
     inkscape:groupmode="layer"
     id="g1289"
     style="display:inline;fill:url(#linearGradient1305);fill-opacity:1"
     sodipodi:insensitive="true">
    <g
       aria-label="{  }"
       id="g1287"
       style="font-size:200px;font-family:Symbol;-inkscape-font-specification:'Symbol, Normal';fill:url(#linearGradient1305);fill-opacity:1"
       transform="translate(0,17.300015)">
      <path
         d="m 125.19,170.2 c 13.6,-2.53333 20.4,-9.53333 20.4,-21 0,-5.06667 -0.66667,-13.73333 -2,-26 -1.33333,-13.06667 -2,-22.53333 -2,-28.4 0,-9.6 2.66667,-16.933333 8,-22 5.46667,-5.066667 12.73333,-7.6 21.8,-7.6 h 11.6 V 81 h -8.2 c -5.2,0 -9.06667,1.2 -11.6,3.6 -2.53333,2.266667 -3.8,6.066667 -3.8,11.4 0,3.866667 0.26667,8.66667 0.8,14.4 0.53333,5.6 0.86667,9.4 1,11.4 1.33333,12.8 2,22.13333 2,28 0,7.06667 -1.8,13 -5.4,17.8 -3.46667,4.66667 -8.86667,7.8 -16.2,9.4 v 0.4 c 7.33333,1.6 12.73333,4.8 16.2,9.6 3.6,4.8 5.4,10.73333 5.4,17.8 0,5.86667 -0.66667,15.2 -2,28 -0.13333,2 -0.46667,5.86667 -1,11.6 -0.53333,5.6 -0.8,10.33333 -0.8,14.2 0,5.33333 1.26667,9.13333 3.8,11.4 2.53333,2.4 6.4,3.6 11.6,3.6 H 228 v 15.8 h -56.61 c -9.06667,0 -16.33333,-2.53333 -21.8,-7.6 -5.33333,-5.06667 -8,-12.4 -8,-22 0,-5.86667 0.66667,-15.33333 2,-28.4 1.33333,-12.26667 2,-20.93333 2,-26 0,-11.46667 -6.8,-18.46667 -20.4,-21 z"
         style="font-family:Poppins;-inkscape-font-specification:'Poppins, Normal';fill:url(#linearGradient1305);fill-opacity:1"
         id="path1283"
         sodipodi:nodetypes="cscscsccscsccsccccsccscsccscscscc" />
      <path
         d="m 374.7893,184.4 c -13.6,2.53333 -20.4,9.53333 -20.4,21 0,5.06667 0.66667,13.73333 2,26 1.33333,13.06667 2,22.53333 2,28.4 0,9.6 -2.73333,16.93333 -8.2,22 -5.33333,5.06667 -12.53333,7.6 -21.6,7.6 H 272 v -15.8 h 53.1893 c 5.2,0 9.06667,-1.2 11.6,-3.6 2.53333,-2.26667 3.8,-6.06667 3.8,-11.4 0,-3.86667 -0.26667,-8.6 -0.8,-14.2 -0.53333,-5.73333 -0.86667,-9.6 -1,-11.6 -1.33333,-12.8 -2,-22.13333 -2,-28 0,-7.06667 1.73333,-13 5.2,-17.8 3.6,-4.8 9.06667,-8 16.4,-9.6 V 177 c -7.33333,-1.6 -12.8,-4.73333 -16.4,-9.4 -3.46667,-4.8 -5.2,-10.73333 -5.2,-17.8 0,-5.86667 0.66667,-15.2 2,-28 0.13333,-2 0.46667,-5.8 1,-11.4 0.53333,-5.73333 0.8,-10.533333 0.8,-14.4 0,-5.333333 -1.26667,-9.133333 -3.8,-11.4 -2.53333,-2.4 -6.4,-3.6 -11.6,-3.6 H 182.99 V 65.2 h 145.5993 c 9.06667,0 16.26667,2.533333 21.6,7.6 5.46667,5.066667 8.2,12.4 8.2,22 0,5.86667 -0.66667,15.33333 -2,28.4 -1.33333,12.26667 -2,20.93333 -2,26 0,11.46667 6.8,18.46667 20.4,21 z"
         style="font-family:Poppins;-inkscape-font-specification:'Poppins, Normal';fill:url(#linearGradient1305);fill-opacity:1"
         id="path1285"
         sodipodi:nodetypes="cscscsccscsccsccccsccscsccscscscc" />
    </g>
  </g>
  <g
     inkscape:label="Rectangles"
     inkscape:groupmode="layer"
     id="g494"
     sodipodi:insensitive="true"
     style="display:none">
    <rect
       style="fill:#000000;stroke-width:0.980534"
       id="rect490"
       width="512"
       height="100"
       x="0"
       y="0" />
    <rect
       style="fill:#000000;stroke-width:0.980534"
       id="rect492"
       width="512"
       height="100"
       x="0"
       y="412" />
  </g>
  <g
     inkscape:label="J"
     inkscape:groupmode="layer"
     id="g508"
     sodipodi:insensitive="true"
     style="fill:#333333">
    <text
       xml:space="preserve"
       style="font-size:333.333px;font-family:Symbol;-inkscape-font-specification:'Symbol, Normal';fill:#333333"
       x="122.68335"
       y="426.90515"
       id="text498"><tspan
         sodipodi:role="line"
         id="tspan496"
         x="122.68335"
         y="426.90515"
         style="font-style:normal;font-variant:normal;font-weight:normal;font-stretch:normal;font-size:333.333px;font-family:Poppins;-inkscape-font-specification:'Poppins, Normal';font-variant-ligatures:normal;font-variant-caps:normal;font-variant-numeric:normal;font-variant-east-asian:normal;fill:#333333">J</tspan></text>
  </g>
</svg>
